<svg width="1061" height="287" viewBox="0 0 1061 287" fill="none" xmlns="http://www.w3.org/2000/svg">
<path d="M286.824 0.000244141H0V286.824L286.824 0.000244141Z" fill="#DAAEBB"/>
<path d="M0.00143433 286.824L286.825 286.824L286.825 -3.05176e-05L0.00143433 286.824Z" fill="#8F9952"/>
<path d="M684.65 120.297V53.7256H698.889V120.297H684.65ZM691.308 120.297V109.387H734.209V120.297H691.308ZM691.308 91.6345V80.909H730.973V91.6345H691.308ZM691.308 64.6359V53.7256H733.1V64.6359H691.308Z" fill="#09090B"/>
<path d="M631.038 120.297V53.7256H645.277V120.297H631.038ZM637.695 120.297V109.387H677.268V120.297H637.695Z" fill="#09090B"/>
<path d="M589.167 120.297V64.6359H567.438V53.7256H625.134V64.6359H603.406V120.297H589.167Z" fill="#09090B"/>
<path d="M539.538 121.13C530.908 121.13 524.005 119.219 518.827 115.397C513.649 111.514 510.629 106.059 509.766 99.0315H523.45C523.881 102.607 525.607 105.442 528.628 107.538C531.648 109.572 535.501 110.589 540.185 110.589C544.007 110.589 546.935 109.911 548.969 108.555C551.065 107.199 552.113 105.38 552.113 103.1C552.113 100.942 551.496 99.2165 550.263 97.922C549.031 96.5659 546.904 95.4872 543.884 94.6859L531.494 91.2648C525.145 89.4773 520.491 87.0425 517.532 83.9604C514.635 80.8168 513.187 76.9026 513.187 72.2179C513.187 68.2113 514.204 64.7594 516.238 61.8623C518.334 58.9036 521.262 56.6537 525.022 55.1127C528.782 53.5101 533.189 52.7087 538.244 52.7087C546.01 52.7087 552.205 54.558 556.828 58.2564C561.451 61.8932 564.071 66.7319 564.687 72.7727H551.003C550.387 69.5058 548.876 67.1018 546.473 65.5608C544.13 64.0198 541.11 63.2493 537.411 63.2493C534.206 63.2493 531.648 63.8657 529.737 65.0985C527.826 66.3313 526.871 67.9956 526.871 70.0913C526.871 71.694 527.395 73.1734 528.443 74.5295C529.491 75.8239 531.679 76.9334 535.007 77.858L547.397 81.2791C553.931 83.0667 558.616 85.5323 561.451 88.6759C564.348 91.758 565.797 95.6721 565.797 100.418C565.797 107.076 563.485 112.192 558.862 115.767C554.239 119.342 547.798 121.13 539.538 121.13Z" fill="#09090B"/>
<path d="M489.615 120.297V53.7256H503.854V120.297H489.615Z" fill="#09090B"/>
<path d="M423.993 120.297V53.7256H438.232V120.297H423.993ZM467.08 120.297V53.7256H481.319V120.297H467.08ZM430.65 80.1693H473.552V91.0797H430.65V80.1693Z" fill="#09090B"/>
<path d="M382.121 120.297V64.6359H360.393V53.7256H418.088V64.6359H396.36V120.297H382.121Z" fill="#09090B"/>
<path d="M1010.68 232.02V165.448H1024.92V232.02H1010.68ZM1017.34 232.02V221.11H1060.24V232.02H1017.34ZM1017.34 203.357V192.632H1057.01V203.357H1017.34ZM1017.34 176.359V165.448H1059.13V176.359H1017.34Z" fill="#09090B"/>
<path d="M949.477 232.02V165.448H979.249C984.057 165.448 988.248 166.281 991.824 167.945C995.399 169.548 998.172 171.828 1000.14 174.787C1002.12 177.746 1003.1 181.198 1003.1 185.143C1003.1 189.026 1002.12 192.447 1000.14 195.406C998.172 198.303 995.399 200.584 991.824 202.248C988.248 203.85 984.057 204.652 979.249 204.652H960.757V194.204H978.879C982.269 194.204 984.858 193.433 986.646 191.892C988.495 190.29 989.42 188.071 989.42 185.235C989.42 182.338 988.526 180.15 986.738 178.67C984.951 177.129 982.331 176.359 978.879 176.359H963.716V232.02H949.477ZM987.016 232.02L960.294 197.44H975.366L1006.25 232.02H987.016Z" fill="#09090B"/>
<path d="M914.309 232.945C904.817 232.945 897.697 230.356 892.951 225.178C888.266 219.939 885.924 212.326 885.924 202.34V165.448H900.163V204.837C900.163 210.631 901.426 214.884 903.954 217.596C906.481 220.308 909.964 221.665 914.402 221.665C918.84 221.665 922.323 220.308 924.85 217.596C927.377 214.884 928.641 210.662 928.641 204.929V165.448H942.88V202.525C942.88 212.388 940.506 219.939 935.76 225.178C931.014 230.356 923.864 232.945 914.309 232.945Z" fill="#09090B"/>
<path d="M844.79 232.02V176.359H823.062V165.448H880.757V176.359H859.029V232.02H844.79Z" fill="#09090B"/>
<path d="M792.278 232.945C787.47 232.945 783.032 232.113 778.963 230.448C774.895 228.722 771.351 226.318 768.33 223.236C765.372 220.154 763.06 216.518 761.396 212.326C759.732 208.073 758.899 203.45 758.899 198.457C758.899 193.464 759.701 188.903 761.303 184.773C762.968 180.643 765.279 177.068 768.238 174.047C771.258 170.965 774.803 168.623 778.871 167.02C782.939 165.356 787.408 164.524 792.278 164.524C797.764 164.524 802.695 165.603 807.071 167.76C811.51 169.856 815.115 172.845 817.889 176.729C820.725 180.55 822.451 185.05 823.067 190.228H809.198C808.397 185.482 806.455 181.907 803.373 179.503C800.291 177.037 796.623 175.804 792.37 175.804C788.61 175.804 785.282 176.698 782.384 178.485C779.549 180.273 777.33 182.862 775.727 186.252C774.125 189.581 773.323 193.618 773.323 198.365C773.323 203.172 774.125 207.333 775.727 210.847C777.392 214.299 779.672 216.98 782.569 218.891C785.466 220.74 788.795 221.665 792.555 221.665C796.562 221.665 800.106 220.463 803.188 218.059C806.27 215.655 808.273 212.08 809.198 207.333H823.252C822.451 212.511 820.632 217.042 817.797 220.925C814.961 224.747 811.355 227.705 806.979 229.801C802.602 231.897 797.702 232.945 792.278 232.945Z" fill="#09090B"/>
<path d="M706.318 232.02V165.448H720.557V232.02H706.318ZM712.976 232.02V221.11H755.877V232.02H712.976ZM712.976 203.357V192.632H752.641V203.357H712.976ZM712.976 176.359V165.448H754.768V176.359H712.976Z" fill="#09090B"/>
<path d="M664.447 232.02V176.359H642.719V165.448H700.414V176.359H678.686V232.02H664.447Z" fill="#09090B"/>
<path d="M622.571 232.02V165.448H636.81V232.02H622.571Z" fill="#09090B"/>
<path d="M556.952 232.02V165.448H571.191V232.02H556.952ZM600.039 232.02V165.448H614.278V232.02H600.039ZM563.609 191.892H606.511V202.803H563.609V191.892Z" fill="#09090B"/>
<path d="M520.061 232.945C515.253 232.945 510.815 232.113 506.747 230.448C502.678 228.722 499.134 226.318 496.114 223.236C493.155 220.154 490.843 216.518 489.179 212.326C487.515 208.073 486.683 203.45 486.683 198.457C486.683 193.464 487.484 188.903 489.087 184.773C490.751 180.643 493.062 177.068 496.021 174.047C499.042 170.965 502.586 168.623 506.654 167.02C510.722 165.356 515.191 164.524 520.061 164.524C525.547 164.524 530.478 165.603 534.855 167.76C539.293 169.856 542.899 172.845 545.673 176.729C548.508 180.55 550.234 185.05 550.85 190.228H536.981C536.18 185.482 534.238 181.907 531.156 179.503C528.074 177.037 524.407 175.804 520.153 175.804C516.393 175.804 513.065 176.698 510.168 178.485C507.332 180.273 505.113 182.862 503.51 186.252C501.908 189.581 501.106 193.618 501.106 198.365C501.106 203.172 501.908 207.333 503.51 210.847C505.175 214.299 507.455 216.98 510.353 218.891C513.25 220.74 516.578 221.665 520.338 221.665C524.345 221.665 527.889 220.463 530.971 218.059C534.053 215.655 536.057 212.08 536.981 207.333H551.035C550.234 212.511 548.416 217.042 545.58 220.925C542.745 224.747 539.139 227.705 534.762 229.801C530.386 231.897 525.485 232.945 520.061 232.945Z" fill="#09090B"/>
<path d="M428.405 232.02V165.448H458.178C462.986 165.448 467.177 166.281 470.752 167.945C474.327 169.548 477.101 171.828 479.074 174.787C481.046 177.746 482.032 181.198 482.032 185.143C482.032 189.026 481.046 192.447 479.074 195.406C477.101 198.303 474.327 200.584 470.752 202.248C467.177 203.85 462.986 204.652 458.178 204.652H439.685V194.204H457.808C461.198 194.204 463.787 193.433 465.574 191.892C467.424 190.29 468.348 188.071 468.348 185.235C468.348 182.338 467.454 180.15 465.667 178.67C463.879 177.129 461.26 176.359 457.808 176.359H442.644V232.02H428.405ZM465.944 232.02L439.223 197.44H454.294L485.176 232.02H465.944Z" fill="#09090B"/>
<path d="M360.393 232.02L384.247 165.448H396.452L374.539 232.02H360.393ZM409.212 232.02L387.391 165.448H400.151L424.006 232.02H409.212ZM372.967 206.224H410.321V217.319H372.967V206.224Z" fill="#09090B"/>
</svg>
